# xmcd CD database file
#
# Track frame offsets:
#	150
#	27027
#	45003
#	78162
#	107244
#	125130
#	145905
#	165195
#	183981
#	217860
#	237006
#	254955
#	269817
#	289278
#
# Disc length: 4267 seconds
#
# Revision: 0
# Processed by: cddbd v1.5.2PL0 Copyright (c) Steve Scherf et al.
# Submitted via: CDex 1.70beta2
#
DISCID=c410a90e
DTITLE=Gabin - The First Ten Years
DYEAR=2012
DGENRE=Jazz
TTITLE0=La Maison
TTITLE1=Une Histoire D'Amoure
TTITLE2=Doo Uap, Doo Uap, Doo Uap
TTITLE3=Azul A￱il
TTITLE4=Mr. Freedom
TTITLE5=Into My Soul
TTITLE6=Bang Bang To The Rock' N' Roll
TTITLE7=The Other Way Round
TTITLE8=Keep It Cool
TTITLE9=The Alchemist
TTITLE10=Lies
TTITLE11=The Game
TTITLE12=Lost And Found
TTITLE13=Ready, Set, Go!
EXTD=YEAR: 2012
EXTT0=
EXTT1=
EXTT2=
EXTT3=
EXTT4=
EXTT5=
EXTT6=
EXTT7=
EXTT8=
EXTT9=
EXTT10=
EXTT11=
EXTT12=
EXTT13=
PLAYORDER=
